<svg xmlns="http://www.w3.org/2000/svg" width="105.124" height="47.79" viewBox="0 0 105.124 47.79">
  <g id="ANID_LOGO_COULEURe" data-name="ANID LOGO COULEURe" transform="translate(-125.621 -70.196)">
    <g id="Groupe_6319" data-name="Groupe 6319" transform="translate(162.731 72.625)">
      <path id="Tracé_5078" data-name="Tracé 5078" d="M-95.808-11h-2.11l-.389,1.076h-.666l1.749-4.809h.729l1.742,4.809h-.666Zm-.18-.514-.874-2.443-.874,2.443Zm5.663-1.846a1.5,1.5,0,0,0-.583-.656,1.674,1.674,0,0,0-.888-.232,1.8,1.8,0,0,0-.913.232,1.642,1.642,0,0,0-.638.666,2.09,2.09,0,0,0-.232,1,2.07,2.07,0,0,0,.232,1,1.648,1.648,0,0,0,.638.663,1.8,1.8,0,0,0,.913.232,1.651,1.651,0,0,0,1.166-.423,1.747,1.747,0,0,0,.534-1.145h-1.929v-.514h2.6v.486a2.4,2.4,0,0,1-.375,1.093,2.316,2.316,0,0,1-.84.784,2.353,2.353,0,0,1-1.159.288,2.441,2.441,0,0,1-1.228-.316,2.318,2.318,0,0,1-.878-.878,2.5,2.5,0,0,1-.323-1.27,2.524,2.524,0,0,1,.323-1.274,2.311,2.311,0,0,1,.878-.881,2.441,2.441,0,0,1,1.228-.316,2.465,2.465,0,0,1,1.364.382,2.184,2.184,0,0,1,.864,1.076Zm2.367-.888v1.617H-86.2v.521h-1.763v1.666h1.971v.521h-2.6V-14.77h2.6v.521Zm6.732,4.324h-.632l-2.54-3.852v3.852h-.632V-14.77h.632l2.54,3.845V-14.77h.632Zm.84-2.422a2.545,2.545,0,0,1,.319-1.274,2.319,2.319,0,0,1,.871-.885,2.4,2.4,0,0,1,1.225-.319,2.486,2.486,0,0,1,1.381.382,2.187,2.187,0,0,1,.861,1.083h-.756a1.519,1.519,0,0,0-.579-.673,1.677,1.677,0,0,0-.906-.236,1.764,1.764,0,0,0-.909.236,1.65,1.65,0,0,0-.632.67,2.147,2.147,0,0,0-.229,1.017,2.132,2.132,0,0,0,.229,1.01,1.65,1.65,0,0,0,.632.67,1.764,1.764,0,0,0,.909.236,1.7,1.7,0,0,0,.906-.232,1.5,1.5,0,0,0,.579-.67h.756a2.171,2.171,0,0,1-.861,1.072,2.5,2.5,0,0,1-1.381.378A2.422,2.422,0,0,1-79.2-10.2a2.3,2.3,0,0,1-.871-.878A2.526,2.526,0,0,1-80.387-12.348Zm6.225-1.9v1.617H-72.4v.521h-1.763v1.666h1.971v.521h-2.6V-14.77h2.6v.521Zm8.585,4.324h-.632l-2.54-3.852v3.852h-.632V-14.77h.632l2.54,3.845V-14.77h.632ZM-61.642-11h-2.11l-.389,1.076h-.666l1.749-4.809h.729l1.742,4.809h-.666Zm-.18-.514-.874-2.443-.874,2.443Zm4.976-3.248v.514h-1.319v4.324H-58.8V-14.25h-1.326v-.514Zm1.409,0v4.837h-.632v-4.837Zm3.269,4.886a2.441,2.441,0,0,1-1.228-.316,2.311,2.311,0,0,1-.878-.881,2.524,2.524,0,0,1-.323-1.274,2.524,2.524,0,0,1,.323-1.274A2.311,2.311,0,0,1-53.4-14.5a2.441,2.441,0,0,1,1.228-.316,2.454,2.454,0,0,1,1.235.316,2.294,2.294,0,0,1,.874.878,2.54,2.54,0,0,1,.319,1.277,2.54,2.54,0,0,1-.319,1.277,2.294,2.294,0,0,1-.874.878A2.454,2.454,0,0,1-52.169-9.878Zm0-.548a1.783,1.783,0,0,0,.913-.236,1.661,1.661,0,0,0,.638-.673,2.126,2.126,0,0,0,.232-1.013,2.121,2.121,0,0,0-.232-1.017,1.673,1.673,0,0,0-.635-.67,1.777,1.777,0,0,0-.916-.236,1.777,1.777,0,0,0-.916.236,1.673,1.673,0,0,0-.635.67,2.121,2.121,0,0,0-.232,1.017,2.126,2.126,0,0,0,.232,1.013,1.661,1.661,0,0,0,.638.673A1.783,1.783,0,0,0-52.169-10.426Zm7.065.5h-.632l-2.54-3.852v3.852h-.632V-14.77h.632l2.54,3.845V-14.77h.632ZM-41.169-11h-2.11l-.389,1.076h-.666l1.749-4.809h.729l1.742,4.809h-.666Zm-.18-.514-.874-2.443-.874,2.443Zm2.63,1.076h1.693v.514h-2.325v-4.837h.632Zm3-3.81v1.617h1.763v.521h-1.763v1.666h1.971v.521h-2.6V-14.77h2.6v.521ZM-93-5.841a2.987,2.987,0,0,1,1.371.295,2.073,2.073,0,0,1,.888.843,2.587,2.587,0,0,1,.309,1.291,2.568,2.568,0,0,1-.309,1.287,2.037,2.037,0,0,1-.888.833A3.047,3.047,0,0,1-93-1h-1.506V-5.841Zm0,4.317a1.928,1.928,0,0,0,1.43-.5,1.889,1.889,0,0,0,.493-1.391,1.928,1.928,0,0,0-.5-1.409A1.907,1.907,0,0,0-93-5.327h-.874v3.8Zm3.72-5-.083,1.381h-.437l-.09-1.381Zm1.416.687V-1H-88.5V-5.841Zm2.582,0a2.987,2.987,0,0,1,1.371.295,2.073,2.073,0,0,1,.888.843,2.587,2.587,0,0,1,.309,1.291,2.568,2.568,0,0,1-.309,1.287,2.037,2.037,0,0,1-.888.833A3.047,3.047,0,0,1-85.287-1h-1.506V-5.841Zm0,4.317a1.928,1.928,0,0,0,1.43-.5,1.889,1.889,0,0,0,.493-1.391,1.927,1.927,0,0,0-.5-1.409,1.907,1.907,0,0,0-1.426-.507h-.874v3.8Zm4.032-3.8V-3.71h1.763v.521h-1.763v1.666h1.971V-1h-2.6V-5.847h2.6v.521ZM-74.523-1h-.632l-2.54-3.852V-1h-.632V-5.847h.632L-75.155-2V-5.847h.632Zm4.053-4.837v.514h-1.319V-1h-.632V-5.327h-1.326v-.514Zm1.409,0V-1h-.632V-5.841Zm3.81,0v.514h-2.1V-3.7h1.707v.514h-1.707V-1h-.632V-5.841Zm1.395,0V-1h-.632V-5.841Zm.84,2.415A2.545,2.545,0,0,1-62.7-4.7a2.319,2.319,0,0,1,.871-.885A2.4,2.4,0,0,1-60.6-5.9a2.486,2.486,0,0,1,1.381.382,2.187,2.187,0,0,1,.861,1.083h-.756a1.519,1.519,0,0,0-.579-.673,1.677,1.677,0,0,0-.906-.236,1.764,1.764,0,0,0-.909.236,1.65,1.65,0,0,0-.632.67,2.147,2.147,0,0,0-.229,1.017,2.132,2.132,0,0,0,.229,1.01,1.65,1.65,0,0,0,.632.67,1.764,1.764,0,0,0,.909.236,1.7,1.7,0,0,0,.906-.232,1.5,1.5,0,0,0,.579-.67h.756A2.171,2.171,0,0,1-59.22-1.34,2.5,2.5,0,0,1-60.6-.962a2.422,2.422,0,0,1-1.225-.316,2.3,2.3,0,0,1-.871-.878A2.526,2.526,0,0,1-63.016-3.425Zm8.453,1.346h-2.11L-57.062-1h-.666l1.749-4.809h.729L-53.508-1h-.666Zm-.18-.514-.874-2.443-.874,2.443Zm4.976-3.248v.514h-1.319V-1h-.632V-5.327h-1.326v-.514Zm1.409,0V-1h-.632V-5.841ZM-45.09-.955a2.441,2.441,0,0,1-1.228-.316,2.311,2.311,0,0,1-.878-.881,2.524,2.524,0,0,1-.323-1.274A2.524,2.524,0,0,1-47.2-4.7a2.312,2.312,0,0,1,.878-.881A2.441,2.441,0,0,1-45.09-5.9a2.454,2.454,0,0,1,1.235.316,2.294,2.294,0,0,1,.874.878,2.54,2.54,0,0,1,.319,1.277,2.54,2.54,0,0,1-.319,1.277,2.294,2.294,0,0,1-.874.878A2.454,2.454,0,0,1-45.09-.955Zm0-.548a1.783,1.783,0,0,0,.913-.236,1.661,1.661,0,0,0,.638-.673,2.126,2.126,0,0,0,.232-1.013,2.121,2.121,0,0,0-.232-1.017,1.673,1.673,0,0,0-.635-.67,1.777,1.777,0,0,0-.916-.236,1.777,1.777,0,0,0-.916.236,1.673,1.673,0,0,0-.635.67,2.121,2.121,0,0,0-.232,1.017,2.126,2.126,0,0,0,.232,1.013A1.661,1.661,0,0,0-46-1.739,1.783,1.783,0,0,0-45.09-1.5Zm7.065.5h-.632L-41.2-4.855V-1h-.632V-5.847h.632L-38.656-2V-5.847h.632Z" transform="translate(100.455 43.55)" fill="#fff"/>
      <path id="Tracé_5079" data-name="Tracé 5079" d="M-104.466-57.851a10.14,10.14,0,0,1,.988-4.591,7.371,7.371,0,0,1,2.691-3.04,7.025,7.025,0,0,1,3.8-1.064,6.529,6.529,0,0,1,3.147.73A5.375,5.375,0,0,1-91.757-63.9v-2.4h5.2v16.966h-5.2v-2.4a5.614,5.614,0,0,1-2.113,1.915,6.529,6.529,0,0,1-3.147.73,6.9,6.9,0,0,1-3.77-1.079,7.459,7.459,0,0,1-2.691-3.071A10.236,10.236,0,0,1-104.466-57.851Zm12.709.03a4.251,4.251,0,0,0-1.079-3.071,3.507,3.507,0,0,0-2.63-1.125,3.53,3.53,0,0,0-2.63,1.11,4.2,4.2,0,0,0-1.079,3.056A4.305,4.305,0,0,0-98.1-54.765a3.485,3.485,0,0,0,2.63,1.14,3.507,3.507,0,0,0,2.63-1.125A4.251,4.251,0,0,0-91.757-57.821Zm19.307-8.665a6.157,6.157,0,0,1,4.758,1.931,7.531,7.531,0,0,1,1.779,5.306v9.912h-5.169v-9.213a3.723,3.723,0,0,0-.882-2.645,3.092,3.092,0,0,0-2.372-.943,3.092,3.092,0,0,0-2.372.943,3.723,3.723,0,0,0-.882,2.645v9.213h-5.2V-66.3h5.2v2.25a5.485,5.485,0,0,1,2.128-1.779A6.766,6.766,0,0,1-72.45-66.486Zm12.77-1.581a3.151,3.151,0,0,1-2.235-.806,2.611,2.611,0,0,1-.867-1.991,2.645,2.645,0,0,1,.867-2.022,3.151,3.151,0,0,1,2.235-.806,3.11,3.11,0,0,1,2.2.806,2.645,2.645,0,0,1,.867,2.022,2.611,2.611,0,0,1-.867,1.991A3.11,3.11,0,0,1-59.68-68.067ZM-57.1-66.3v16.966h-5.2V-66.3Zm2.736,8.452a10.14,10.14,0,0,1,.988-4.591,7.371,7.371,0,0,1,2.691-3.04,7.025,7.025,0,0,1,3.8-1.064,6.675,6.675,0,0,1,3.056.7,5.568,5.568,0,0,1,2.174,1.885v-7.875h5.2v22.5h-5.2v-2.432a5.3,5.3,0,0,1-2.083,1.946,6.529,6.529,0,0,1-3.147.73,6.951,6.951,0,0,1-3.8-1.079,7.459,7.459,0,0,1-2.691-3.071A10.236,10.236,0,0,1-54.36-57.851Zm12.709.03a4.251,4.251,0,0,0-1.079-3.071,3.507,3.507,0,0,0-2.63-1.125,3.53,3.53,0,0,0-2.63,1.11,4.2,4.2,0,0,0-1.079,3.056,4.305,4.305,0,0,0,1.079,3.086,3.485,3.485,0,0,0,2.63,1.14,3.507,3.507,0,0,0,2.63-1.125A4.251,4.251,0,0,0-41.651-57.821Z" transform="translate(104.466 73.692)" fill="#fff"/>
    </g>
    <g id="Groupe_3091" data-name="Groupe 3091" transform="translate(136.065 75.414)">
      <g id="Composant_273_4" data-name="Composant 273 – 4" transform="translate(0 0)">
        <g id="Groupe_1v" data-name="Groupe 1v">
          <path id="Tracé_1" data-name="Tracé 1" d="M579.785,192.674a7.235,7.235,0,0,0,2.028-3.495,9.747,9.747,0,0,0,.2-2.21,6.715,6.715,0,0,1,2.718-5.541.312.312,0,0,1,.415-.014.537.537,0,0,1,.219.489.423.423,0,0,1-.14.14,6,6,0,0,0-2.274,3.466,6.955,6.955,0,0,0-.15,1.681,8.67,8.67,0,0,1-.957,4.171,5.907,5.907,0,0,1-1.478,1.849.453.453,0,0,1-.638,0A.387.387,0,0,1,579.785,192.674Z" transform="translate(-577.623 -180.578)" fill="#fff"/>
          <path id="Tracé_2" data-name="Tracé 2" d="M613.409,324.263a13.766,13.766,0,0,1-.634,3.216,11.616,11.616,0,0,1-2.957,4.827,9.586,9.586,0,0,1-2.621,1.806.37.37,0,0,1-.435-.161.425.425,0,0,1,.158-.583,9.683,9.683,0,0,0,4.668-5,12.362,12.362,0,0,0,1.037-4.285c0-.062.011-.125.017-.187.016-.189.063-.226.256-.206A.572.572,0,0,1,613.409,324.263Z" transform="translate(-603.475 -316.475)" fill="#fff"/>
          <path id="Tracé_3" data-name="Tracé 3" d="M619.3,299.845a12.046,12.046,0,0,1-1,4.514,8.93,8.93,0,0,1-3.133,3.9.482.482,0,0,1-.563-.026.421.421,0,0,1,.1-.579,8.759,8.759,0,0,0,3.167-4.348,11.406,11.406,0,0,0,.634-4.142c-.005-.226.059-.29.293-.291a.488.488,0,0,1,.505.486Z" transform="translate(-610.913 -292.787)" fill="#fff"/>
          <path id="Tracé_4" data-name="Tracé 4" d="M651.37,536.143a16.392,16.392,0,0,1-6.835,5.748c-.281.127-.569.237-.854.352-.042.02-.471.035-.463-.352a.41.41,0,0,1,.253-.416c.453-.2.916-.384,1.359-.606a15.5,15.5,0,0,0,5.716-4.924c.068-.1.423-.64.825-.392C651.562,535.718,651.48,535.93,651.37,536.143Z" transform="translate(-638.313 -518.376)" fill="#fff"/>
          <path id="Tracé_5" data-name="Tracé 5" d="M639.408,642.48a19.306,19.306,0,0,1-8.6,5.023.387.387,0,0,1-.438-.335.478.478,0,0,1,.3-.452,18.523,18.523,0,0,0,8.238-4.846C639.258,641.53,639.888,641.932,639.408,642.48Z" transform="translate(-626.061 -620.077)" fill="#fff"/>
          <path id="Tracé_6" data-name="Tracé 6" d="M642.42,597.31a16.976,16.976,0,0,0,5.674-3.345,16.514,16.514,0,0,0,1.875-1.955c.1-.124.308-.288.495-.174.361.16.217.568,0,.822a17.82,17.82,0,0,1-7.938,5.448c-.243.083-.459.063-.515-.193C641.9,597.515,642.213,597.382,642.42,597.31Z" transform="translate(-637.194 -572.531)" fill="#fff"/>
          <path id="Tracé_7" data-name="Tracé 7" d="M617.334,432.979a.431.431,0,0,1,.166-.531,11.189,11.189,0,0,0,5.515-5.6c.112-.236.207-.48.313-.718a.395.395,0,1,1,.726.307,12.7,12.7,0,0,1-3.868,5.294,10.7,10.7,0,0,1-2.247,1.347C617.621,433.23,617.479,433.206,617.334,432.979Z" transform="translate(-613.556 -414.031)" fill="#fff"/>
          <path id="Tracé_8" data-name="Tracé 8" d="M627.512,252a8.6,8.6,0,0,0,1.535-3.764,11.145,11.145,0,0,0,.131-2,5.136,5.136,0,0,1,.631-2.573c.106-.194.193-.247.382-.221a.492.492,0,0,1,.414.317.193.193,0,0,1-.027.144,4.793,4.793,0,0,0-.608,2.556,9.993,9.993,0,0,1-1.117,4.865c-.223.423-.5.815-.77,1.218a.422.422,0,0,1-.57.1C627.353,252.54,627.316,252.26,627.512,252Z" transform="translate(-623.191 -239.865)" fill="#fff"/>
          <path id="Tracé_9" data-name="Tracé 9" d="M648.162,457.536a12.909,12.909,0,0,0,5.727-6.327c.1-.229.207-.262.429-.128a.478.478,0,0,1,.216.619,13.772,13.772,0,0,1-5.18,6.058c-.255.163-.422.234-.686.383-.223.125-.537.145-.651-.088A.443.443,0,0,1,648.162,457.536Z" transform="translate(-642.824 -438.026)" fill="#fff"/>
          <path id="Tracé_10" data-name="Tracé 10" d="M645.695,781.464c.119.284-.237.534-.421.656a23.641,23.641,0,0,1-5.192,2.618c-.909.317-1.849.551-2.773.829-.142.043-.424.07-.481-.229a.446.446,0,0,1,.3-.548,22.271,22.271,0,0,0,4.082-1.349,23.976,23.976,0,0,0,3.859-2.141A.422.422,0,0,1,645.695,781.464Z" transform="translate(-632.229 -753.284)" fill="#fff"/>
          <path id="Tracé_11" data-name="Tracé 11" d="M653.649,693.055c.181.222-.074.508-.2.61a21.007,21.007,0,0,1-7.594,4.105.46.46,0,0,1-.512-.116.4.4,0,0,1,.18-.611,19.831,19.831,0,0,0,3.352-1.308,20.093,20.093,0,0,0,4.154-2.756A.421.421,0,0,1,653.649,693.055Z" transform="translate(-640.283 -668.922)" fill="#fff"/>
          <path id="Tracé_12" data-name="Tracé 12" d="M644.139,742.77a.4.4,0,0,1,.335-.438,21.32,21.32,0,0,0,7.425-3.664c.139-.106.5-.365.749,0,.174.313-.168.562-.293.657a22.129,22.129,0,0,1-6.058,3.261c-.561.2-1.132.359-1.7.532C644.305,743.207,644.142,743.077,644.139,742.77Z" transform="translate(-639.148 -712.575)" fill="#fff"/>
          <path id="Tracé_13" data-name="Tracé 13" d="M652.325,826.9a.337.337,0,0,1,.238-.3,24.615,24.615,0,0,0,7.305-3.094.359.359,0,0,1,.538.17.563.563,0,0,1-.267.6,25.707,25.707,0,0,1-6.576,2.882c-.2.055-.393.107-.589.158C652.649,827.392,652.31,827.263,652.325,826.9Z" transform="translate(-647.007 -793.599)" fill="#fff"/>
          <path id="Tracé_14" data-name="Tracé 14" d="M597.171,178.715a7.55,7.55,0,0,0-1.623,4.678c0,.433-.032.866-.043,1.3a.451.451,0,0,1-.363.352.439.439,0,0,1-.426-.493c.03-.516.025-1.034.052-1.55a8.293,8.293,0,0,1,2.084-5.141.44.44,0,0,1,.444-.1C597.751,178.027,597.366,178.463,597.171,178.715Z" transform="translate(-591.964 -177.111)" fill="#fff"/>
          <path id="Tracé_15" data-name="Tracé 15" d="M705.346,868.571a.624.624,0,0,1-.393.6,27.012,27.012,0,0,1-3.121,1.456c-.506.2-1.021.368-1.533.55a.384.384,0,0,1-.433-.088.39.39,0,0,1,.167-.654c.422-.154.848-.294,1.268-.453a25.573,25.573,0,0,0,3.476-1.619C705.018,868.227,705.295,868.292,705.346,868.571Z" transform="translate(-692.237 -836.414)" fill="#fff"/>
          <path id="Tracé_16" data-name="Tracé 16" d="M642.446,581.289a13.567,13.567,0,0,0,3.753-2.437.494.494,0,0,1,.384-.181.385.385,0,0,1,.34.262.369.369,0,0,1-.122.437c-.416.349-.824.708-1.257,1.034a13.709,13.709,0,0,1-2.815,1.626.373.373,0,0,1-.557-.2A.406.406,0,0,1,642.446,581.289Z" transform="translate(-637.309 -559.908)" fill="#fff"/>
          <path id="Tracé_17" data-name="Tracé 17" d="M563.545,174.538c-.331-.005-.5-.22-.444-.572a9.755,9.755,0,0,1,1.773-4.255.5.5,0,0,1,.762-.157c.2.188.11.315.062.376a9.036,9.036,0,0,0-1.7,3.55c-.06.259-.107.521-.148.784C563.82,174.481,563.763,174.541,563.545,174.538Z" transform="translate(-561.771 -169.29)" fill="#fff"/>
          <path id="Tracé_18" data-name="Tracé 18" d="M698.88,919.256a.293.293,0,0,1,.245-.342,27.755,27.755,0,0,0,4.028-1.557.406.406,0,0,1,.557.107.386.386,0,0,1-.195.592c-.863.37-1.726.744-2.6,1.09-.494.2-1.008.343-1.514.508C699.1,919.753,698.882,919.587,698.88,919.256Z" transform="translate(-691.41 -883.197)" fill="#fff"/>
          <path id="Tracé_19" data-name="Tracé 19" d="M758.112,486.6a.369.369,0,0,1-.348-.226.4.4,0,0,1,.064-.438c.254-.325.528-.639.749-.985.408-.642.794-1.3,1.174-1.96a.287.287,0,0,1,.341-.164.4.4,0,0,1,.326.613,16.122,16.122,0,0,1-1.95,2.965A.408.408,0,0,1,758.112,486.6Z" transform="translate(-747.59 -468.402)" fill="#fff"/>
          <path id="Tracé_20" data-name="Tracé 20" d="M535.264,165.057c-.144.247-.278.429-.411.683a10.683,10.683,0,0,0-.885,2.272.592.592,0,0,0,.38.662c.207.063.256.037.307-.17a16.045,16.045,0,0,1,1.317-3.121c.16-.279.16-.475-.139-.594S535.264,165.057,535.264,165.057Z" transform="translate(-533.954 -164.765)" fill="#fff"/>
          <path id="Tracé_21" data-name="Tracé 21" d="M768.671,936.192c-.869.444-1.741.882-2.607,1.332a.646.646,0,0,0-.26.268.333.333,0,0,0,.111.408.4.4,0,0,0,.467.042,31.862,31.862,0,0,0,2.824-1.488.473.473,0,0,0,.139-.562A.492.492,0,0,0,768.671,936.192Z" transform="translate(-755.272 -900.994)" fill="#fff"/>
          <path id="Tracé_22" data-name="Tracé 22" d="M764.7,346.71c-.069.354-.154.842-.262,1.323a.381.381,0,0,1-.477.252.407.407,0,0,1-.28-.465c.093-.554.187-1.109.275-1.664a.153.153,0,0,1,.156-.141C764.433,345.972,764.7,346.224,764.7,346.71Z" transform="translate(-753.271 -337.79)" fill="#fff"/>
        </g>
      </g>
    </g>
    <path id="Icon_ionic-ios-arrow-back_-_Contour" data-name="Icon ionic-ios-arrow-back - Contour" d="M1.292,8.383A1.281,1.281,0,0,0,2.2,8.006L5.12,5.084a1.293,1.293,0,0,0-.015-1.805L2.2.377a1.291,1.291,0,0,0-1.824,0,1.287,1.287,0,0,0,0,1.822L2.372,4.191.38,6.185a1.288,1.288,0,0,0,.912,2.2Z" transform="translate(150.623 74.072) rotate(-45)" fill="#fcba21"/>
    <path id="Icon_ionic-ios-arrow-back_-_Contour-2" data-name="Icon ionic-ios-arrow-back - Contour" d="M1.292,0A1.281,1.281,0,0,1,2.2.377L5.12,3.3A1.293,1.293,0,0,1,5.105,5.1l-2.9,2.9a1.291,1.291,0,0,1-1.824,0,1.287,1.287,0,0,1,0-1.822L2.372,4.192.38,2.2A1.288,1.288,0,0,1,1.292,0Z" transform="translate(156.551 108.183) rotate(45)" fill="#fcba21"/>
    <path id="Icon_ionic-ios-arrow-back_-_Contour-3" data-name="Icon ionic-ios-arrow-back - Contour" d="M1.292,0A1.281,1.281,0,0,1,2.2.377L5.12,3.3A1.293,1.293,0,0,1,5.105,5.1l-2.9,2.9a1.291,1.291,0,0,1-1.824,0,1.287,1.287,0,0,1,0-1.822L2.372,4.192.38,2.2A1.288,1.288,0,0,1,1.292,0Z" transform="translate(129.496 79.999) rotate(-135)" fill="#fcba21"/>
    <path id="Icon_ionic-ios-arrow-back_-_Contour-4" data-name="Icon ionic-ios-arrow-back - Contour" d="M1.292,8.383A1.281,1.281,0,0,0,2.2,8.006L5.12,5.084a1.293,1.293,0,0,0-.015-1.805L2.2.377a1.291,1.291,0,0,0-1.824,0,1.287,1.287,0,0,0,0,1.822L2.372,4.191.38,6.185a1.288,1.288,0,0,0,.912,2.2Z" transform="translate(135.424 114.111) rotate(135)" fill="#fcba21"/>
  </g>
</svg>
